HIERARCHY
ROOT root
{
	OFFSET	0	13.1	24.9
	CHANNELS 6  Xposition Yposition Zposition Xrotation Yrotation Zrotation
	JOINT spine_1
	{
		OFFSET	0	9.99999	0
		CHANNELS 3  Xrotation Yrotation Zrotation
		JOINT spine_2
		{
			OFFSET	0	112	-10
			CHANNELS 3  Xrotation Yrotation Zrotation
			JOINT spine_3
			{
				OFFSET	0	206.5	19.3
				CHANNELS 3  Xrotation Yrotation Zrotation
				JOINT spine_4
				{
					OFFSET	0	110.4	14.6
					CHANNELS 3  Xrotation Yrotation Zrotation
					JOINT neck_1
					{
						OFFSET	0	71.8	-50.3
						CHANNELS 3  Xrotation Yrotation Zrotation
						JOINT neck_2
						{
							OFFSET	0	86.2	-25.8
							CHANNELS 3  Xrotation Yrotation Zrotation
							JOINT head_ee
							{
								OFFSET	0	179.8	-8.7
								CHANNELS 3  Xrotation Yrotation Zrotation
								End Site
								{
									OFFSET	1	0	0
								}
							}
						}
					}
					JOINT left_clavicle
					{
						OFFSET	-43.2	22.4	-70.8
						CHANNELS 3  Xrotation Yrotation Zrotation
						JOINT left_shoulder
						{
							OFFSET	-93.9	-5.79999	48.7
							CHANNELS 3  Xrotation Yrotation Zrotation
							JOINT left_elbow
							{
								OFFSET	-291.4	-30.8	15.2
								CHANNELS 3  Xrotation Yrotation Zrotation
								JOINT left_lowarm_twist
								{
									OFFSET	-110.7	-3.89999	13.6
									CHANNELS 3  Xrotation Yrotation Zrotation
									JOINT left_hand
									{
										OFFSET	-110.7	-3.89999	13.6
										CHANNELS 3  Xrotation Yrotation Zrotation
										JOINT left_ee
										{
											OFFSET	-80.8	-5.10001	12.1
											CHANNELS 3  Xrotation Yrotation Zrotation
											End Site
											{
												OFFSET	1	0	0
											}
										}
									}
								}
							}
						}
					}
					JOINT right_clavicle
					{
						OFFSET	43.2	22.4	-70.8
						CHANNELS 3  Xrotation Yrotation Zrotation
						JOINT right_shoulder
						{
							OFFSET	93.9	-5.79999	48.7
							CHANNELS 3  Xrotation Yrotation Zrotation
							JOINT right_elbow
							{
								OFFSET	291.4	-30.8	15.2
								CHANNELS 3  Xrotation Yrotation Zrotation
								JOINT right_lowarm_twist
								{
									OFFSET	110.7	-3.89999	13.6
									CHANNELS 3  Xrotation Yrotation Zrotation
									JOINT right_hand
									{
										OFFSET	110.7	-3.89999	13.6
										CHANNELS 3  Xrotation Yrotation Zrotation
										JOINT right_ee
										{
											OFFSET	80.8	-5.10001	12.1
											CHANNELS 3  Xrotation Yrotation Zrotation
											End Site
											{
												OFFSET	1	0	0
											}
										}
									}
								}
							}
						}
					}
				}
			}
		}
	}
	JOINT left_hip
	{
		OFFSET	-82.8	-127.5	0.300001
		CHANNELS 3  Xrotation Yrotation Zrotation
		JOINT left_knee
		{
			OFFSET	-28.2	-396.7	2.2
			CHANNELS 3  Xrotation Yrotation Zrotation
			JOINT left_ankle
			{
				OFFSET	-11.7	-411.3	35.4
				CHANNELS 3  Xrotation Yrotation Zrotation
				JOINT left_toes
				{
					OFFSET	0	-60	-88.6
					CHANNELS 3  Xrotation Yrotation Zrotation
					JOINT left_foot_ee
					{
						OFFSET	-22.5	-16.5	-42.2
						CHANNELS 3  Xrotation Yrotation Zrotation
						End Site
						{
							OFFSET	1	0	0
						}
					}
				}
			}
		}
	}
	JOINT right_hip
	{
		OFFSET	82.8	-127.5	0.300001
		CHANNELS 3  Xrotation Yrotation Zrotation
		JOINT right_knee
		{
			OFFSET	28.2	-396.7	2.2
			CHANNELS 3  Xrotation Yrotation Zrotation
			JOINT right_ankle
			{
				OFFSET	11.7	-411.3	35.4
				CHANNELS 3  Xrotation Yrotation Zrotation
				JOINT right_toes
				{
					OFFSET	0	-60	-88.6
					CHANNELS 3  Xrotation Yrotation Zrotation
					JOINT right_foot_ee
					{
						OFFSET	22.5	-16.5	-42.2
						CHANNELS 3  Xrotation Yrotation Zrotation
						End Site
						{
							OFFSET	1	0	0
						}
					}
				}
			}
		}
	}
}
MOTION
Frames: 5
Frame Time: 0.02
2619.25662154 742.31 -1597.95149818 -2.05544692414 36.1109146068 -3.47382190848 1.60521 0.618691 4.11162 1.61454 0.356034 4.14259 1.64106 -0.404639 4.13813 1.61726 0.2534 4.15012 -9.03267 14.7014 -2.24362 -9.21128 29.1244 1.34599 -0.0 0.0 -0.0 -8.10484 18.647 -10.2548 -0.586308 -17.7851 71.0769 2.20534 -47.5238 0.971016 37.3903 -0.220531 -4.68759 3.12932 -3.98001 19.7746 -0.0 0.0 -0.0 12.6342 26.3815 -24.7892 -20.2653 42.0187 -64.4183 0.650946 17.8725 -0.102358 32.9797 0.0353151 4.15519 0.688154 -18.2605 -11.628 0.0 0.0 0.0 9.95507 38.6551 -5.55202 -22.8061 0.251766 3.46767 13.4804 -20.8293 -2.15166 -40.1382 0.0 0.0 -0.0 0.0 -0.0 9.45608 7.97894 -1.45559 -1.02153 -0.0407124 -0.151479 21.4239 0.161585 2.92837 1.30326 -0.0 -0.0 0.0 0.0 0.0 
2618.86312613 741.02 -1607.3083739 -1.09920089986 32.363239533 -3.55854361577 1.38577 0.690123 4.12292 1.39513 0.426605 4.1584 1.42753 -0.353503 4.16523 1.40346 0.308166 4.16883 -8.20973 14.2908 -3.7742 -8.26759 29.3481 -0.500562 -0.0 0.0 -0.0 -8.11862 18.5025 -10.3269 -0.0192876 -18.7149 70.7104 2.17643 -47.1473 0.949759 38.767 -0.286688 -4.85072 3.20539 -6.73383 19.1247 -0.0 0.0 -0.0 12.1205 25.4088 -23.7222 -20.9672 42.6644 -64.4094 0.757389 20.5655 -0.137407 30.7162 -0.0436645 3.87691 0.739662 -19.9412 -12.53 0.0 0.0 0.0 14.4869 52.4449 -10.1916 -12.8371 0.312204 1.9412 21.1504 -20.1174 -3.22597 -39.2527 0.0 0.0 -0.0 0.0 -0.0 7.85931 9.51493 -1.80621 -0.193543 -0.0079211 -0.0286448 24.4201 4.56583 3.32717 -4.28672 0.0 0.0 0.0 0.0 0.0 
2613.31505888 736.825 -1618.79636405 -1.36922091419 28.0949739173 -2.65887102524 1.69611 0.576156 3.92874 1.70464 0.325193 3.95738 1.72758 -0.395249 3.95101 1.70587 0.233194 3.96385 -7.50843 13.8958 -4.15206 -7.47776 28.8332 -1.16738 -0.0 0.0 -0.0 -8.34997 19.1611 -10.4641 -0.669757 -20.0277 70.1106 2.23299 -47.8791 0.991472 38.1404 -0.256089 -4.77667 3.58298 -9.39319 20.6246 -0.0 0.0 -0.0 11.8959 24.7772 -23.2763 -21.5138 43.4328 -64.6178 0.719238 19.6105 -0.124303 27.2056 -0.144235 3.43983 0.570104 -23.2775 -12.6453 0.0 0.0 0.0 21.2389 69.1413 -18.1889 -7.55663 0.236575 1.13475 32.6368 -25.0444 -4.84585 -31.9778 0.0 0.0 -0.0 0.0 -0.0 7.65318 9.70472 -2.14705 -0.388382 -0.0157971 -0.0575078 27.4406 7.7596 3.72095 -9.11937 0.0 0.0 0.0 0.0 0.0 
2542.36534358 745.975 -1592.63325571 -3.09283114662 23.2001571063 -0.47479501851 3.26353 0.752588 3.79548 3.27139 0.509729 3.8356 3.30262 -0.0848313 3.86834 3.28212 0.526709 3.83331 -7.24942 18.5992 -4.26176 -7.2106 37.6601 -0.299617 -0.0 0.0 -0.0 -9.14959 22.1702 -10.5764 -13.4076 -20.1492 71.3249 1.45878 -35.851 0.471911 33.4417 -0.0527847 -4.2116 0.740398 -9.69204 0.881093 -0.0 0.0 -0.0 12.1068 26.1915 -23.6031 -20.0871 39.3447 -73.8724 0.745152 20.2604 -0.133139 20.7911 -0.258151 2.62878 1.68058 -17.7425 -17.6989 0.0 0.0 0.0 37.2572 79.3483 -38.6819 -15.7935 0.322012 2.39463 21.6695 -30.6093 -3.69993 -17.5185 0.0 0.0 -0.0 0.0 -0.0 10.837 21.2026 -3.0124 -4.54842 -0.160367 -0.679442 23.6879 4.19522 3.23615 -2.13791 0.0 0.0 0.0 0.0 0.0 
2539.48730262 745.975 -1586.16134099 -3.12713712131 24.6241138722 -0.390165509169 3.26353 0.752588 3.79548 3.27139 0.509729 3.8356 3.30262 -0.0848313 3.86834 3.28212 0.526709 3.83331 -7.24942 18.5992 -4.26176 -7.2106 37.6601 -0.299617 -0.0 0.0 -0.0 -9.14959 22.1702 -10.5764 -13.4076 -20.1492 71.3249 1.45878 -35.851 0.471911 33.4417 -0.0527847 -4.2116 0.740398 -9.69204 0.881093 -0.0 0.0 -0.0 12.1068 26.1915 -23.6031 -20.0871 39.3447 -73.8724 0.745152 20.2604 -0.133139 20.7911 -0.258151 2.62878 1.68058 -17.7425 -17.6989 0.0 0.0 0.0 37.2572 79.3483 -38.6819 -15.7935 0.322012 2.39463 21.6695 -30.6093 -3.69993 -17.5185 0.0 0.0 -0.0 0.0 -0.0 10.837 21.2026 -3.0124 -4.54842 -0.160367 -0.679442 23.6879 4.19522 3.23615 -2.13791 0.0 0.0 0.0 0.0 0.0 
